OpenSans-CondensedBold.ufo
<glyph name="numbersign" format="2">
  <advance width="1114"/>
  <unicode hex="0023"/>
  <note>
numbersign
</note>
  <outline>
    <contour>
      <point x="170" y="0" type="line"/>
      <point x="361" y="0" type="line"/>
      <point x="419" y="410" type="line"/>
      <point x="600" y="410" type="line"/>
      <point x="540" y="0" type="line"/>
      <point x="732" y="0" type="line"/>
      <point x="792" y="410" type="line"/>
      <point x="1021" y="410" type="line"/>
      <point x="1021" y="604" type="line"/>
      <point x="818" y="604" type="line"/>
      <point x="854" y="856" type="line"/>
      <point x="1074" y="856" type="line"/>
      <point x="1074" y="1050" type="line"/>
      <point x="884" y="1050" type="line"/>
      <point x="943" y="1462" type="line"/>
      <point x="755" y="1462" type="line"/>
      <point x="694" y="1050" type="line"/>
      <point x="511" y="1050" type="line"/>
      <point x="570" y="1462" type="line"/>
      <point x="382" y="1462" type="line"/>
      <point x="323" y="1050" type="line"/>
      <point x="93" y="1050" type="line"/>
      <point x="93" y="856" type="line"/>
      <point x="294" y="856" type="line"/>
      <point x="257" y="604" type="line"/>
      <point x="41" y="604" type="line"/>
      <point x="41" y="410" type="line"/>
      <point x="228" y="410" type="line"/>
    </contour>
    <contour>
      <point x="448" y="604" type="line"/>
      <point x="482" y="856" type="line"/>
      <point x="665" y="856" type="line"/>
      <point x="628" y="604" type="line"/>
    </contour>
  </outline>
</glyph>
<glyph name="greater" format="2">
  <advance width="918"/>
  <unicode hex="003E"/>
  <note>
greater
</note>
  <outline>
    <contour>
      <point x="106" y="209" type="line"/>
      <point x="810" y="645" type="line"/>
      <point x="810" y="801" type="line"/>
      <point x="106" y="1235" type="line"/>
      <point x="106" y="1010" type="line"/>
      <point x="594" y="723" type="line"/>
      <point x="106" y="434" type="line"/>
    </contour>
  </outline>
</glyph>
<glyph name="P" format="2">
  <advance width="981"/>
  <unicode hex="0050"/>
  <anchor x="490.7" y="0" name="bottom"/>
  <anchor x="490.7" y="1462" name="top"/>
  <outline>
    <contour>
      <point x="128.5" y="0" type="line"/>
      <point x="400.8" y="0" type="line"/>
      <point x="400.8" y="529.8" type="line"/>
      <point x="469.1" y="529.8" type="line" smooth="yes"/>
      <point x="765.3" y="529.8"/>
      <point x="926" y="700.4"/>
      <point x="926" y="1011.9" type="curve" smooth="yes"/>
      <point x="926" y="1312"/>
      <point x="784.3" y="1462"/>
      <point x="500" y="1462" type="curve" smooth="yes"/>
      <point x="128.5" y="1462" type="line"/>
    </contour>
    <contour>
      <point x="400.8" y="765.4" type="line"/>
      <point x="400.8" y="1227.1" type="line"/>
      <point x="467.1" y="1227.1" type="line" smooth="yes"/>
      <point x="592.5" y="1227.1"/>
      <point x="651" y="1154.1"/>
      <point x="651" y="1000.7" type="curve" smooth="yes"/>
      <point x="651" y="834.6"/>
      <point x="586.4" y="765.4"/>
      <point x="453.3" y="765.4" type="curve" smooth="yes"/>
    </contour>
  </outline>
</glyph>
<glyph name="currency" format="2">
  <advance width="1112"/>
  <unicode hex="00A4"/>
  <note>
currency
</note>
  <outline>
    <contour>
      <point x="882.8" y="260" type="line"/>
      <point x="1018.5" y="394.7" type="line"/>
      <point x="893" y="519.8" type="line"/>
      <point x="929.6" y="579.2"/>
      <point x="947.7" y="647.5"/>
      <point x="947.7" y="723.7" type="curve" smooth="yes"/>
      <point x="947.7" y="795.7"/>
      <point x="929.6" y="864"/>
      <point x="893" y="926.2" type="curve"/>
      <point x="1022" y="1054.9" type="line"/>
      <point x="882.9" y="1188.2" type="line"/>
      <point x="754.2" y="1059.5" type="line"/>
      <point x="692.3" y="1097.5"/>
      <point x="625.7" y="1116"/>
      <point x="555.8" y="1116" type="curve" smooth="yes"/>
      <point x="483.5" y="1116"/>
      <point x="415.9" y="1097.9"/>
      <point x="354.1" y="1061" type="curve"/>
      <point x="226.8" y="1188.2" type="line"/>
      <point x="90" y="1050.7" type="line"/>
      <point x="218.7" y="924.2" type="line"/>
      <point x="180.6" y="858.2"/>
      <point x="162.1" y="790.2"/>
      <point x="162.1" y="723.7" type="curve" smooth="yes"/>
      <point x="162.1" y="649.9"/>
      <point x="180.6" y="583"/>
      <point x="218.7" y="521.9" type="curve"/>
      <point x="92" y="397.3" type="line"/>
      <point x="227.4" y="262" type="line"/>
      <point x="352" y="385.1" type="line"/>
      <point x="407.6" y="349.9"/>
      <point x="474.1" y="332.1"/>
      <point x="556.5" y="332.1" type="curve" smooth="yes"/>
      <point x="625" y="332.1"/>
      <point x="691.6" y="349.9"/>
      <point x="754.2" y="384.5" type="curve"/>
    </contour>
    <contour>
      <point x="555.1" y="523.5" type="curve" smooth="yes"/>
      <point x="443.9" y="523.5"/>
      <point x="355.6" y="612.1"/>
      <point x="355.6" y="722.3" type="curve" smooth="yes"/>
      <point x="355.6" y="835.7"/>
      <point x="444.5" y="924.5"/>
      <point x="555.1" y="924.5" type="curve" smooth="yes"/>
      <point x="668.3" y="924.5"/>
      <point x="757.6" y="835.5"/>
      <point x="757.6" y="722.3" type="curve" smooth="yes"/>
      <point x="757.6" y="613.8"/>
      <point x="667.7" y="523.5"/>
    </contour>
  </outline>
</glyph>
<glyph name="guillemetleft" format="2">
  <advance width="1141"/>
  <unicode hex="00AB"/>
  <note>
guillemotleft
</note>
  <outline>
    <contour>
      <point x="868" y="97" type="line"/>
      <point x="1067" y="209" type="line"/>
      <point x="847" y="557" type="line"/>
      <point x="1067" y="905" type="line"/>
      <point x="868" y="1016" type="line"/>
      <point x="561" y="570" type="line"/>
      <point x="561" y="543" type="line"/>
    </contour>
    <contour>
      <point x="381" y="97" type="line"/>
      <point x="580" y="209" type="line"/>
      <point x="359" y="557" type="line"/>
      <point x="580" y="905" type="line"/>
      <point x="381" y="1016" type="line"/>
      <point x="74" y="570" type="line"/>
      <point x="74" y="543" type="line"/>
    </contour>
  </outline>
</glyph>
<glyph name="paragraph" format="2">
  <advance width="1083"/>
  <unicode hex="00B6"/>
  <note>
paragraph
</note>
  <outline>
    <contour>
      <point x="478.8" y="-260" type="line"/>
      <point x="632.3" y="-260" type="line"/>
      <point x="632.3" y="1364.1" type="line"/>
      <point x="795.1" y="1364.1" type="line"/>
      <point x="795.1" y="-260" type="line"/>
      <point x="947.9" y="-260" type="line"/>
      <point x="947.9" y="1556" type="line"/>
      <point x="399.3" y="1556" type="line" smooth="yes"/>
      <point x="165.6" y="1556"/>
      <point x="63.2" y="1384.8"/>
      <point x="63.2" y="1042" type="curve" smooth="yes"/>
      <point x="63.2" y="758.9"/>
      <point x="135.7" y="541"/>
      <point x="373.4" y="541" type="curve" smooth="yes"/>
      <point x="414.1" y="541"/>
      <point x="449" y="547"/>
      <point x="478.8" y="559" type="curve"/>
    </contour>
  </outline>
</glyph>
<glyph name="divide" format="2">
  <advance width="918"/>
  <unicode hex="00F7"/>
  <note>
divide
</note>
  <outline>
    <contour>
      <point x="105.9" y="617.6" type="line"/>
      <point x="811.1" y="617.6" type="line"/>
      <point x="811.1" y="825.6" type="line"/>
      <point x="105.9" y="825.6" type="line"/>
    </contour>
    <contour>
      <point x="456.9" y="227.5" type="curve" smooth="yes"/>
      <point x="533.5" y="227.5"/>
      <point x="579.4" y="282.3"/>
      <point x="579.4" y="373" type="curve" smooth="yes"/>
      <point x="579.4" y="466.4"/>
      <point x="538" y="517.5"/>
      <point x="456.9" y="517.5" type="curve" smooth="yes"/>
      <point x="374.8" y="517.5"/>
      <point x="331.3" y="469.9"/>
      <point x="331.3" y="373" type="curve" smooth="yes"/>
      <point x="331.3" y="269.8"/>
      <point x="384.6" y="227.5"/>
    </contour>
    <contour>
      <point x="456.9" y="926.5" type="curve" smooth="yes"/>
      <point x="533.5" y="926.5"/>
      <point x="579.4" y="981.7"/>
      <point x="579.4" y="1071" type="curve" smooth="yes"/>
      <point x="579.4" y="1165.8"/>
      <point x="538" y="1216.5"/>
      <point x="456.9" y="1216.5" type="curve" smooth="yes"/>
      <point x="374.8" y="1216.5"/>
      <point x="331.3" y="1167.9"/>
      <point x="331.3" y="1071" type="curve" smooth="yes"/>
      <point x="331.3" y="967.8"/>
      <point x="384.6" y="926.5"/>
    </contour>
  </outline>
</glyph>
<glyph name="circumflexcomb" format="2">
  <unicode hex="0302"/>
  <note>
circumflex
</note>
  <anchor x="569" y="1114" name="_top"/>
  <anchor x="569" y="1569" name="top"/>
  <outline>
    <contour>
      <point x="213" y="1226" type="line"/>
      <point x="380" y="1226" type="line"/>
      <point x="410" y="1249"/>
      <point x="450" y="1283"/>
      <point x="482" y="1314" type="curve" smooth="yes"/>
      <point x="505" y="1337"/>
      <point x="529" y="1361"/>
      <point x="567" y="1404" type="curve"/>
      <point x="616" y="1351"/>
      <point x="640" y="1325"/>
      <point x="651" y="1316" type="curve" smooth="yes"/>
      <point x="677" y="1290"/>
      <point x="689" y="1279"/>
      <point x="755" y="1226" type="curve"/>
      <point x="923" y="1226" type="line"/>
      <point x="923" y="1253" type="line"/>
      <point x="809" y="1397"/>
      <point x="737" y="1498"/>
      <point x="707" y="1554" type="curve"/>
      <point x="429" y="1554" type="line"/>
      <point x="403" y="1503"/>
      <point x="331" y="1404"/>
      <point x="213" y="1253" type="curve"/>
    </contour>
  </outline>
</glyph>
<glyph name="tildecomb" format="2">
  <unicode hex="0303"/>
  <note>
tildecomb
</note>
  <anchor x="346.5" y="1114.4" name="_top"/>
  <anchor x="346.5" y="1542.2" name="top"/>
  <outline>
    <contour>
      <point x="0" y="1226" type="curve"/>
      <point x="141" y="1226" type="line"/>
      <point x="154" y="1308"/>
      <point x="179" y="1335"/>
      <point x="218" y="1335" type="curve" smooth="yes"/>
      <point x="267" y="1335"/>
      <point x="306" y="1304"/>
      <point x="348" y="1272" type="curve" smooth="yes"/>
      <point x="375" y="1249"/>
      <point x="418" y="1228"/>
      <point x="475" y="1228" type="curve" smooth="yes"/>
      <point x="596" y="1228"/>
      <point x="679" y="1327"/>
      <point x="694" y="1529" type="curve"/>
      <point x="553" y="1529" type="line"/>
      <point x="539" y="1457"/>
      <point x="523" y="1421"/>
      <point x="477" y="1421" type="curve" smooth="yes"/>
      <point x="439" y="1421"/>
      <point x="403" y="1446"/>
      <point x="361" y="1474" type="curve" smooth="yes"/>
      <point x="326" y="1498"/>
      <point x="280" y="1527"/>
      <point x="217" y="1527" type="curve" smooth="yes"/>
      <point x="99" y="1527"/>
      <point x="15" y="1433"/>
    </contour>
  </outline>
</glyph>
<glyph name="macroncomb" format="2">
  <unicode hex="0304"/>
  <anchor x="303" y="1114.4" name="_top"/>
  <anchor x="303" y="1445.7" name="top"/>
  <outline>
    <contour>
      <point x="0" y="1226" type="line"/>
      <point x="606" y="1226" type="line"/>
      <point x="606" y="1426" type="line"/>
      <point x="0" y="1426" type="line"/>
    </contour>
  </outline>
</glyph>
<glyph name="brevecomb" format="2">
  <unicode hex="0306"/>
  <note>
breve
</note>
  <anchor x="563" y="1114" name="_top"/>
  <anchor x="563" y="1567" name="top"/>
  <outline>
    <contour>
      <point x="560" y="1226" type="curve" smooth="yes"/>
      <point x="745" y="1226"/>
      <point x="858" y="1345"/>
      <point x="873" y="1553" type="curve"/>
      <point x="712" y="1553" type="line"/>
      <point x="699" y="1462"/>
      <point x="665" y="1428"/>
      <point x="562" y="1428" type="curve" smooth="yes"/>
      <point x="451" y="1428"/>
      <point x="422" y="1458"/>
      <point x="413" y="1553" type="curve"/>
      <point x="253" y="1553" type="line"/>
      <point x="260" y="1346"/>
      <point x="364" y="1226"/>
    </contour>
  </outline>
</glyph>
<glyph name="dotaccentcomb" format="2">
  <unicode hex="0307"/>
  <note>
dotaccent
</note>
  <anchor x="285" y="1114" name="_top"/>
  <anchor x="285" y="1548" name="top"/>
  <outline>
    <contour>
      <point x="281" y="1246" type="curve" smooth="yes"/>
      <point x="378" y="1246"/>
      <point x="434" y="1293"/>
      <point x="434" y="1390" type="curve" smooth="yes"/>
      <point x="434" y="1484"/>
      <point x="383" y="1532"/>
      <point x="281" y="1532" type="curve" smooth="yes"/>
      <point x="178" y="1532"/>
      <point x="127" y="1484"/>
      <point x="127" y="1390" type="curve" smooth="yes"/>
      <point x="127" y="1293"/>
      <point x="181" y="1246"/>
    </contour>
  </outline>
</glyph>
<glyph name="dieresiscomb" format="2">
  <unicode hex="0308"/>
  <note>
dieresis
</note>
  <anchor x="565" y="1145" name="_top"/>
  <anchor x="565" y="1532" name="top"/>
  <outline>
    <contour>
      <point x="764" y="1246" type="curve" smooth="yes"/>
      <point x="846" y="1246"/>
      <point x="896" y="1293"/>
      <point x="896" y="1373" type="curve" smooth="yes"/>
      <point x="896" y="1455"/>
      <point x="844" y="1502"/>
      <point x="764" y="1502" type="curve" smooth="yes"/>
      <point x="680" y="1502"/>
      <point x="631" y="1455"/>
      <point x="631" y="1373" type="curve" smooth="yes"/>
      <point x="631" y="1294"/>
      <point x="681" y="1246"/>
    </contour>
    <contour>
      <point x="364" y="1246" type="curve" smooth="yes"/>
      <point x="446" y="1246"/>
      <point x="498" y="1296"/>
      <point x="498" y="1373" type="curve" smooth="yes"/>
      <point x="498" y="1451"/>
      <point x="446" y="1502"/>
      <point x="364" y="1502" type="curve" smooth="yes"/>
      <point x="282" y="1502"/>
      <point x="233" y="1455"/>
      <point x="233" y="1373" type="curve" smooth="yes"/>
      <point x="233" y="1292"/>
      <point x="282" y="1246"/>
    </contour>
  </outline>
</glyph>
<glyph name="hookabovecomb" format="2">
  <unicode hex="0309"/>
  <note>
hookabovecomb
</note>
  <anchor x="-1" y="1114" name="_top"/>
  <anchor x="-1" y="1696" name="top"/>
  <outline>
    <contour>
      <point x="-116" y="1226" type="line"/>
      <point x="47" y="1226" type="line"/>
      <point x="57" y="1305" type="line"/>
      <point x="166" y="1332"/>
      <point x="220" y="1395"/>
      <point x="220" y="1496" type="curve" smooth="yes"/>
      <point x="220" y="1636"/>
      <point x="128" y="1705"/>
      <point x="-56" y="1705" type="curve" smooth="yes"/>
      <point x="-130" y="1705"/>
      <point x="-183" y="1698"/>
      <point x="-220" y="1684" type="curve"/>
      <point x="-220" y="1529" type="line"/>
      <point x="-172" y="1542"/>
      <point x="-129" y="1549"/>
      <point x="-89" y="1549" type="curve" smooth="yes"/>
      <point x="-37" y="1549"/>
      <point x="1" y="1527"/>
      <point x="1" y="1479" type="curve" smooth="yes"/>
      <point x="1" y="1428"/>
      <point x="-36" y="1395"/>
      <point x="-136" y="1378" type="curve"/>
    </contour>
  </outline>
</glyph>
<glyph name="ringcomb" format="2">
  <unicode hex="030A"/>
  <note>
ring
</note>
  <anchor x="559" y="1114" name="_top"/>
  <anchor x="559" y="1706" name="top"/>
  <outline>
    <contour>
      <point x="555" y="1226" type="curve" smooth="yes"/>
      <point x="704" y="1226"/>
      <point x="805" y="1319"/>
      <point x="805" y="1462" type="curve" smooth="yes"/>
      <point x="805" y="1599"/>
      <point x="702" y="1693"/>
      <point x="555" y="1693" type="curve" smooth="yes"/>
      <point x="409" y="1693"/>
      <point x="312" y="1604"/>
      <point x="312" y="1460" type="curve" smooth="yes"/>
      <point x="312" y="1316"/>
      <point x="408" y="1226"/>
    </contour>
    <contour>
      <point x="555" y="1359" type="curve" smooth="yes"/>
      <point x="488" y="1359"/>
      <point x="455" y="1398"/>
      <point x="455" y="1460" type="curve" smooth="yes"/>
      <point x="455" y="1522"/>
      <point x="499" y="1561"/>
      <point x="555" y="1561" type="curve" smooth="yes"/>
      <point x="613" y="1561"/>
      <point x="655" y="1522"/>
      <point x="655" y="1460" type="curve" smooth="yes"/>
      <point x="655" y="1397"/>
      <point x="612" y="1359"/>
    </contour>
  </outline>
</glyph>
<glyph name="hungarumlautcomb" format="2">
  <unicode hex="030B"/>
  <note>
hungarumlaut
</note>
  <anchor x="575" y="1114" name="_top"/>
  <anchor x="575" y="1569" name="top"/>
  <outline>
    <contour>
      <point x="542" y="1226" type="line"/>
      <point x="691" y="1226" type="line"/>
      <point x="806" y="1321"/>
      <point x="963" y="1476"/>
      <point x="997" y="1532" type="curve"/>
      <point x="997" y="1554" type="line"/>
      <point x="716" y="1554" type="line"/>
      <point x="685" y="1486"/>
      <point x="604" y="1339"/>
      <point x="542" y="1253" type="curve"/>
    </contour>
    <contour>
      <point x="152" y="1226" type="line"/>
      <point x="302" y="1226" type="line"/>
      <point x="394" y="1298"/>
      <point x="562" y="1464"/>
      <point x="606" y="1532" type="curve"/>
      <point x="606" y="1554" type="line"/>
      <point x="325" y="1554" type="line"/>
      <point x="294" y="1485"/>
      <point x="213" y="1339"/>
      <point x="152" y="1253" type="curve"/>
    </contour>
  </outline>
</glyph>
<glyph name="dblgravecomb" format="2">
  <unicode hex="030F"/>
  <note>
uni030F
</note>
  <anchor x="0" y="1114" name="_top"/>
  <anchor x="0" y="1569" name="top"/>
  <outline>
    <contour>
      <point x="273" y="1226" type="curve"/>
      <point x="423" y="1226" type="line"/>
      <point x="423" y="1253" type="line"/>
      <point x="368" y="1328"/>
      <point x="294" y="1458"/>
      <point x="249" y="1554" type="curve"/>
      <point x="-34" y="1554" type="line"/>
      <point x="-34" y="1532" type="line"/>
      <point x="4" y="1470"/>
      <point x="170" y="1309"/>
    </contour>
    <contour>
      <point x="-118" y="1226" type="curve"/>
      <point x="32" y="1226" type="line"/>
      <point x="32" y="1253" type="line"/>
      <point x="-9" y="1307"/>
      <point x="-97" y="1453"/>
      <point x="-142" y="1554" type="curve"/>
      <point x="-423" y="1554" type="line"/>
      <point x="-423" y="1532" type="line"/>
      <point x="-385" y="1471"/>
      <point x="-217" y="1305"/>
    </contour>
  </outline>
</glyph>
<glyph name="commaturnedabovecomb" format="2">
  <unicode hex="0312"/>
  <anchor x="301" y="1114" name="_top"/>
  <anchor x="301" y="1569" name="top"/>
  <outline>
    <contour>
      <point x="136" y="1226" type="line"/>
      <point x="399" y="1226" type="line"/>
      <point x="409" y="1304"/>
      <point x="439" y="1440"/>
      <point x="465" y="1527" type="curve"/>
      <point x="465" y="1554" type="line"/>
      <point x="301" y="1554" type="line"/>
      <point x="232" y="1453"/>
      <point x="179" y="1351"/>
      <point x="136" y="1247" type="curve"/>
    </contour>
  </outline>
</glyph>
<glyph name="tonos" format="2">
  <advance width="1098"/>
  <unicode hex="0384"/>
  <note>
tonos
</note>
  <anchor x="534" y="1114" name="_top"/>
  <anchor x="735" y="1556" name="_topleft"/>
  <outline>
    <contour>
      <point x="382" y="1226" type="line"/>
      <point x="546" y="1226" type="line"/>
      <point x="622" y="1345"/>
      <point x="678" y="1445"/>
      <point x="716" y="1527" type="curve"/>
      <point x="716" y="1552" type="line"/>
      <point x="454" y="1552" type="line"/>
      <point x="436" y="1441"/>
      <point x="411" y="1343"/>
      <point x="382" y="1258" type="curve"/>
    </contour>
  </outline>
</glyph>
<glyph name="Xi" format="2">
  <advance width="838"/>
  <unicode hex="039E"/>
  <note>
Xi
</note>
  <outline>
    <contour>
      <point x="56.7" y="0" type="line"/>
      <point x="780.1" y="0" type="line"/>
      <point x="780.1" y="238.2" type="line"/>
      <point x="56.7" y="238.2" type="line"/>
    </contour>
    <contour>
      <point x="149.7" y="642.7" type="line"/>
      <point x="688.1" y="642.7" type="line"/>
      <point x="688.1" y="878.8" type="line"/>
      <point x="149.7" y="878.8" type="line"/>
    </contour>
    <contour>
      <point x="87.5" y="1226.6" type="line"/>
      <point x="750.3" y="1226.6" type="line"/>
      <point x="750.3" y="1462" type="line"/>
      <point x="87.5" y="1462" type="line"/>
    </contour>
  </outline>
</glyph>
<glyph name="Sigma" format="2">
  <advance width="881"/>
  <unicode hex="03A3"/>
  <note>
Sigma
</note>
  <outline>
    <contour>
      <point x="72.2" y="0" type="line"/>
      <point x="821" y="0" type="line"/>
      <point x="821" y="238.2" type="line"/>
      <point x="500" y="238.2" type="line" smooth="yes"/>
      <point x="446.7" y="238.2"/>
      <point x="394.8" y="233.3"/>
      <point x="342.2" y="227" type="curve"/>
      <point x="666" y="768.4" type="line"/>
      <point x="360.3" y="1235" type="line"/>
      <point x="431.7" y="1227.3"/>
      <point x="473.3" y="1226.6"/>
      <point x="487.3" y="1226.6" type="curve" smooth="yes"/>
      <point x="778.1" y="1226.6" type="line"/>
      <point x="778.1" y="1462" type="line"/>
      <point x="80.3" y="1462" type="line"/>
      <point x="80.3" y="1243.5" type="line"/>
      <point x="390.5" y="766.3" type="line"/>
      <point x="72.2" y="225.4" type="line"/>
    </contour>
  </outline>
</glyph>
<glyph name="xi" format="2">
  <advance width="745"/>
  <unicode hex="03BE"/>
  <note>
xi
</note>
  <outline>
    <contour>
      <point x="344" y="-384" type="curve"/>
      <point x="600" y="-384" type="line"/>
      <point x="691" y="-261"/>
      <point x="729" y="-140"/>
      <point x="729" y="-45" type="curve" smooth="yes"/>
      <point x="729" y="5"/>
      <point x="721" y="38"/>
      <point x="709" y="64" type="curve" smooth="yes"/>
      <point x="683" y="138"/>
      <point x="642" y="165"/>
      <point x="528" y="227" type="curve" smooth="yes"/>
      <point x="477" y="254"/>
      <point x="431" y="283"/>
      <point x="410" y="301" type="curve" smooth="yes"/>
      <point x="365" y="338"/>
      <point x="346" y="382"/>
      <point x="346" y="464" type="curve" smooth="yes"/>
      <point x="346" y="622"/>
      <point x="415" y="713"/>
      <point x="552" y="713" type="curve" smooth="yes"/>
      <point x="659" y="713" type="line"/>
      <point x="659" y="909" type="line"/>
      <point x="563" y="909" type="line" smooth="yes"/>
      <point x="443" y="909"/>
      <point x="395" y="959"/>
      <point x="395" y="1089" type="curve" smooth="yes"/>
      <point x="395" y="1179"/>
      <point x="428" y="1244"/>
      <point x="478" y="1288" type="curve" smooth="yes"/>
      <point x="534" y="1339"/>
      <point x="612" y="1359"/>
      <point x="682" y="1359" type="curve" smooth="yes"/>
      <point x="692" y="1359" type="line"/>
      <point x="692" y="1556" type="line"/>
      <point x="89" y="1556" type="line"/>
      <point x="89" y="1348" type="line"/>
      <point x="178" y="1348" type="line" smooth="yes"/>
      <point x="205" y="1348"/>
      <point x="266" y="1352"/>
      <point x="362" y="1359" type="curve"/>
      <point x="201" y="1305"/>
      <point x="130" y="1212"/>
      <point x="130" y="1085" type="curve" smooth="yes"/>
      <point x="130" y="932"/>
      <point x="204" y="856"/>
      <point x="329" y="819" type="curve"/>
      <point x="329" y="809" type="line"/>
      <point x="172" y="752"/>
      <point x="74" y="639"/>
      <point x="74" y="444" type="curve" smooth="yes"/>
      <point x="74" y="218"/>
      <point x="217" y="105"/>
      <point x="293" y="66" type="curve" smooth="yes"/>
      <point x="407" y="7"/>
      <point x="470" y="-34"/>
      <point x="470" y="-96" type="curve" smooth="yes"/>
      <point x="470" y="-157"/>
      <point x="416" y="-274"/>
    </contour>
  </outline>
</glyph>
<glyph name="tau" format="2">
  <advance width="817"/>
  <unicode hex="03C4"/>
  <note>
tau
</note>
  <outline>
    <contour>
      <point x="538.5" y="-19.4" type="curve" smooth="yes"/>
      <point x="619.1" y="-19.4"/>
      <point x="683.4" y="-4.6"/>
      <point x="730.7" y="25.4" type="curve"/>
      <point x="730.7" y="233.3" type="line"/>
      <point x="687.5" y="213.9"/>
      <point x="649.7" y="205.1"/>
      <point x="607.5" y="205.1" type="curve" smooth="yes"/>
      <point x="546.1" y="205.1"/>
      <point x="514.1" y="248.7"/>
      <point x="514.1" y="330.5" type="curve" smooth="yes"/>
      <point x="514.1" y="898.9" type="line"/>
      <point x="779.9" y="898.9" type="line"/>
      <point x="779.9" y="1114.4" type="line"/>
      <point x="176.1" y="1114.4" type="line"/>
      <point x="35" y="1015.8" type="line"/>
      <point x="35" y="898.9" type="line"/>
      <point x="245.8" y="898.9" type="line"/>
      <point x="245.8" y="334.4" type="line" smooth="yes"/>
      <point x="245.8" y="93.4"/>
      <point x="338.2" y="-19.4"/>
    </contour>
  </outline>
</glyph>
<glyph name="Dje-cy" format="2">
  <advance width="1268"/>
  <unicode hex="0402"/>
  <note>
afii10051
</note>
  <outline>
    <contour>
      <point x="850.1" y="-17.9" type="curve" smooth="yes"/>
      <point x="1060.4" y="-17.9"/>
      <point x="1165" y="115.3"/>
      <point x="1165" y="380.9" type="curve" smooth="yes"/>
      <point x="1165" y="540.9" type="line" smooth="yes"/>
      <point x="1165" y="806.2"/>
      <point x="1041.9" y="926.7"/>
      <point x="766.5" y="926.7" type="curve" smooth="yes"/>
      <point x="564.8" y="926.7" type="line"/>
      <point x="564.8" y="1223.1" type="line"/>
      <point x="846.6" y="1223.1" type="line"/>
      <point x="846.6" y="1462" type="line"/>
      <point x="27.3" y="1462" type="line"/>
      <point x="27.3" y="1223.1" type="line"/>
      <point x="295.3" y="1223.1" type="line"/>
      <point x="295.3" y="0" type="line"/>
      <point x="564.8" y="0" type="line"/>
      <point x="564.8" y="686.1" type="line"/>
      <point x="731.3" y="686.1" type="line" smooth="yes"/>
      <point x="849.5" y="686.1"/>
      <point x="894.8" y="636.5"/>
      <point x="894.8" y="513.6" type="curve" smooth="yes"/>
      <point x="894.8" y="382.8" type="line" smooth="yes"/>
      <point x="894.8" y="270.6"/>
      <point x="867.3" y="215.4"/>
      <point x="791.4" y="215.4" type="curve" smooth="yes"/>
      <point x="764.6" y="215.4"/>
      <point x="735.7" y="221"/>
      <point x="702.7" y="233.3" type="curve"/>
      <point x="702.7" y="6.3" type="line"/>
      <point x="748.2" y="-10.2"/>
      <point x="797" y="-17.9"/>
    </contour>
  </outline>
</glyph>
<glyph name="Sha-cy" format="2">
  <advance width="1704"/>
  <unicode hex="0428"/>
  <note>
afii10042
</note>
  <outline>
    <contour>
      <point x="128.5" y="0" type="line"/>
      <point x="1575.3" y="0" type="line"/>
      <point x="1575.3" y="1462" type="line"/>
      <point x="1303" y="1462" type="line"/>
      <point x="1303" y="239.6" type="line"/>
      <point x="987.2" y="239.6" type="line"/>
      <point x="987.2" y="1462" type="line"/>
      <point x="717.4" y="1462" type="line"/>
      <point x="717.4" y="239.6" type="line"/>
      <point x="400.8" y="239.6" type="line"/>
      <point x="400.8" y="1462" type="line"/>
      <point x="128.5" y="1462" type="line"/>
    </contour>
  </outline>
</glyph>
<glyph name="hardsign-cy" format="2">
  <advance width="1147"/>
  <unicode hex="044A"/>
  <note>
afii10092
</note>
  <outline>
    <contour>
      <point x="293.4" y="0" type="line"/>
      <point x="645.4" y="0" type="line" smooth="yes"/>
      <point x="939.5" y="0"/>
      <point x="1086.8" y="117.6"/>
      <point x="1086.8" y="351.9" type="curve" smooth="yes"/>
      <point x="1086.8" y="570.7"/>
      <point x="950.1" y="677.9"/>
      <point x="653" y="677.9" type="curve" smooth="yes"/>
      <point x="561.7" y="677.9" type="line"/>
      <point x="561.7" y="1114.4" type="line"/>
      <point x="37" y="1114.4" type="line"/>
      <point x="37" y="898.9" type="line"/>
      <point x="293.4" y="898.9" type="line"/>
    </contour>
    <contour>
      <point x="561.7" y="198.7" type="line"/>
      <point x="561.7" y="479.2" type="line"/>
      <point x="635.5" y="479.2" type="line" smooth="yes"/>
      <point x="758.8" y="479.2"/>
      <point x="814.5" y="440.5"/>
      <point x="814.5" y="346.3" type="curve" smooth="yes"/>
      <point x="814.5" y="238.8"/>
      <point x="751.5" y="198.7"/>
      <point x="639.1" y="198.7" type="curve" smooth="yes"/>
    </contour>
  </outline>
</glyph>
<glyph name="Uk-cy" format="2">
  <advance width="2132"/>
  <unicode hex="0478"/>
  <note>
uni0478
</note>
  <outline>
    <contour>
      <point x="1135" y="733" type="curve" smooth="yes"/>
      <point x="1135" y="1217"/>
      <point x="949" y="1485"/>
      <point x="612" y="1485" type="curve" smooth="yes"/>
      <point x="272" y="1485"/>
      <point x="84" y="1219"/>
      <point x="84" y="735" type="curve" smooth="yes"/>
      <point x="84" y="246"/>
      <point x="271" y="-20"/>
      <point x="610" y="-20" type="curve" smooth="yes"/>
      <point x="947" y="-20"/>
      <point x="1135" y="249"/>
    </contour>
    <contour>
      <point x="361" y="733" type="curve" smooth="yes"/>
      <point x="361" y="1069"/>
      <point x="447" y="1245"/>
      <point x="612" y="1245" type="curve" smooth="yes"/>
      <point x="776" y="1245"/>
      <point x="857" y="1074"/>
      <point x="857" y="733" type="curve" smooth="yes"/>
      <point x="857" y="392"/>
      <point x="774" y="221"/>
      <point x="610" y="221" type="curve" smooth="yes"/>
      <point x="447" y="221"/>
      <point x="361" y="400"/>
    </contour>
    <component base="y" xOffset="1219"/>
  </outline>
</glyph>
<glyph name="koppa-cy" format="2">
  <advance width="760"/>
  <unicode hex="0481"/>
  <note>
uni0481
</note>
  <outline>
    <contour>
      <point x="383.3" y="-492" type="line"/>
      <point x="649.5" y="-492" type="line"/>
      <point x="649.5" y="243.6" type="line"/>
      <point x="612.1" y="222.6"/>
      <point x="550.4" y="208.8"/>
      <point x="501.5" y="208.8" type="curve" smooth="yes"/>
      <point x="361.9" y="208.8"/>
      <point x="346.2" y="376.1"/>
      <point x="346.2" y="555.1" type="curve" smooth="yes"/>
      <point x="346.2" y="757"/>
      <point x="362.7" y="906.8"/>
      <point x="504.7" y="906.8" type="curve" smooth="yes"/>
      <point x="550.8" y="906.8"/>
      <point x="598.4" y="891.1"/>
      <point x="650.7" y="857.6" type="curve"/>
      <point x="729.1" y="1064.1" type="line"/>
      <point x="661" y="1105.9"/>
      <point x="567.9" y="1135.4"/>
      <point x="479.2" y="1135.4" type="curve" smooth="yes"/>
      <point x="204.1" y="1135.4"/>
      <point x="73.6" y="945.8"/>
      <point x="73.6" y="546.1" type="curve" smooth="yes"/>
      <point x="73.6" y="233.7"/>
      <point x="179.3" y="36"/>
      <point x="380.7" y="-6.7" type="curve"/>
      <point x="395" y="-6.7"/>
      <point x="410.6" y="-4.5"/>
      <point x="426.1" y="-1.8" type="curve"/>
      <point x="383.3" y="20.1" type="line"/>
    </contour>
  </outline>
</glyph>
<glyph name="chekhakassian-cy" format="2">
  <advance width="1036"/>
  <unicode hex="04CC"/>
  <note>
uni04CC
</note>
  <outline>
    <contour>
      <point x="507.1" y="-397.7" type="line"/>
      <point x="771.9" y="-397.7" type="line"/>
      <point x="771.9" y="0" type="line"/>
      <point x="925.6" y="0" type="line"/>
      <point x="925.6" y="1114.4" type="line"/>
      <point x="657.3" y="1114.4" type="line"/>
      <point x="657.3" y="632.9" type="line"/>
      <point x="599.8" y="585.1"/>
      <point x="547.8" y="552.7"/>
      <point x="472.7" y="552.7" type="curve" smooth="yes"/>
      <point x="401.1" y="552.7"/>
      <point x="368.9" y="596.6"/>
      <point x="368.9" y="700" type="curve" smooth="yes"/>
      <point x="368.9" y="1114.4" type="line"/>
      <point x="102" y="1114.4" type="line"/>
      <point x="102" y="678.6" type="line" smooth="yes"/>
      <point x="102" y="456.8"/>
      <point x="198.4" y="343.6"/>
      <point x="381" y="343.6" type="curve" smooth="yes"/>
      <point x="473.6" y="343.6"/>
      <point x="565.5" y="380.5"/>
      <point x="657.3" y="451.1" type="curve"/>
      <point x="657.3" y="209" type="line"/>
      <point x="507.1" y="209" type="line"/>
    </contour>
  </outline>
</glyph>
<glyph name="gedescender-cy" format="2">
  <advance width="729"/>
  <unicode hex="04F7"/>
  <note>
uni04F7
</note>
  <outline>
    <contour>
      <point x="264.4" y="-397.7" type="line"/>
      <point x="525.7" y="-397.7" type="line"/>
      <point x="525.7" y="209" type="line"/>
      <point x="379.3" y="209" type="line"/>
      <point x="379.3" y="899.1" type="line"/>
      <point x="692.6" y="899.1" type="line"/>
      <point x="692.6" y="1114.4" type="line"/>
      <point x="112.8" y="1114.4" type="line"/>
      <point x="112.8" y="0" type="line"/>
      <point x="264.4" y="0" type="line"/>
    </contour>
  </outline>
</glyph>
<glyph name="tsadi-hb" format="2">
  <advance width="1003"/>
  <unicode hex="05E6"/>
  <note>
afii57686
</note>
  <anchor x="502" y="0" name="bottom"/>
  <anchor x="20" y="0" name="bottomleft"/>
  <anchor x="210" y="472" name="center"/>
  <anchor x="502" y="1114" name="top"/>
  <anchor x="20" y="1114" name="topleft"/>
  <outline>
    <contour>
      <point x="68" y="0" type="line"/>
      <point x="900" y="0" type="line"/>
      <point x="900" y="158" type="line"/>
      <point x="689" y="493" type="line"/>
      <point x="744" y="537"/>
      <point x="779" y="585"/>
      <point x="808" y="635" type="curve" smooth="yes"/>
      <point x="867" y="719"/>
      <point x="890" y="787"/>
      <point x="906" y="848" type="curve" smooth="yes"/>
      <point x="932" y="946"/>
      <point x="939" y="1007"/>
      <point x="948" y="1160" type="curve" smooth="yes"/>
      <point x="960" y="1289" type="line"/>
      <point x="694" y="1289" type="line"/>
      <point x="669" y="1007" type="line" smooth="yes"/>
      <point x="656" y="863"/>
      <point x="624" y="796"/>
      <point x="571" y="731" type="curve"/>
      <point x="560" y="760" type="line"/>
      <point x="335" y="1290" type="line"/>
      <point x="58" y="1290" type="line"/>
      <point x="420" y="459" type="line"/>
      <point x="587" y="202" type="line"/>
      <point x="414" y="215" type="line"/>
      <point x="68" y="215" type="line"/>
    </contour>
  </outline>
</glyph>
<glyph name="resh-hb" format="2">
  <advance width="822"/>
  <unicode hex="05E8"/>
  <note>
afii57688
</note>
  <anchor x="411" y="0" name="bottom"/>
  <anchor x="20" y="0" name="bottomleft"/>
  <anchor x="329" y="637" name="center"/>
  <anchor x="411" y="1114" name="top"/>
  <anchor x="20" y="1114" name="topleft"/>
  <outline>
    <contour>
      <point x="453" y="0" type="line"/>
      <point x="720" y="0" type="line"/>
      <point x="720" y="861" type="line" smooth="yes"/>
      <point x="720" y="982"/>
      <point x="717" y="1082"/>
      <point x="675" y="1157" type="curve" smooth="yes"/>
      <point x="646" y="1210"/>
      <point x="608" y="1245"/>
      <point x="553" y="1269" type="curve" smooth="yes"/>
      <point x="490" y="1296"/>
      <point x="409" y="1310"/>
      <point x="294" y="1310" type="curve" smooth="yes"/>
      <point x="229" y="1310"/>
      <point x="142" y="1305"/>
      <point x="43" y="1294" type="curve"/>
      <point x="43" y="1078" type="line"/>
      <point x="103" y="1084"/>
      <point x="221" y="1093"/>
      <point x="272" y="1093" type="curve" smooth="yes"/>
      <point x="323" y="1093"/>
      <point x="370" y="1082"/>
      <point x="399" y="1058" type="curve" smooth="yes"/>
      <point x="441" y="1024"/>
      <point x="453" y="958"/>
      <point x="453" y="862" type="curve" smooth="yes"/>
    </contour>
  </outline>
</glyph>
<glyph name="ellipsis" format="2">
  <advance width="1659"/>
  <unicode hex="2026"/>
  <note>
ellipsis
</note>
  <outline>
    <contour>
      <point x="276" y="-27" type="curve" smooth="yes"/>
      <point x="381" y="-27"/>
      <point x="442" y="34"/>
      <point x="442" y="137" type="curve" smooth="yes"/>
      <point x="442" y="242"/>
      <point x="385" y="301"/>
      <point x="276" y="301" type="curve" smooth="yes"/>
      <point x="167" y="301"/>
      <point x="111" y="241"/>
      <point x="111" y="137" type="curve" smooth="yes"/>
      <point x="111" y="34"/>
      <point x="168" y="-27"/>
    </contour>
    <contour>
      <point x="829" y="-27" type="curve" smooth="yes"/>
      <point x="934" y="-27"/>
      <point x="995" y="34"/>
      <point x="995" y="137" type="curve" smooth="yes"/>
      <point x="995" y="242"/>
      <point x="938" y="301"/>
      <point x="829" y="301" type="curve" smooth="yes"/>
      <point x="720" y="301"/>
      <point x="664" y="241"/>
      <point x="664" y="137" type="curve" smooth="yes"/>
      <point x="664" y="34"/>
      <point x="721" y="-27"/>
    </contour>
    <contour>
      <point x="1383" y="-27" type="curve" smooth="yes"/>
      <point x="1486" y="-27"/>
      <point x="1547" y="34"/>
      <point x="1547" y="137" type="curve" smooth="yes"/>
      <point x="1547" y="242"/>
      <point x="1491" y="301"/>
      <point x="1383" y="301" type="curve" smooth="yes"/>
      <point x="1272" y="301"/>
      <point x="1217" y="241"/>
      <point x="1217" y="137" type="curve" smooth="yes"/>
      <point x="1217" y="34"/>
      <point x="1275" y="-27"/>
    </contour>
  </outline>
</glyph>
<glyph name="peseta" format="2">
  <advance width="1495"/>
  <unicode hex="20A7"/>
  <note>
peseta
</note>
  <outline>
    <contour>
      <point x="125" y="0" type="line"/>
      <point x="391" y="0" type="line"/>
      <point x="391" y="529.8" type="line"/>
      <point x="413.7" y="529.8" type="line" smooth="yes"/>
      <point x="725.7" y="529.8"/>
      <point x="896.7" y="700.4"/>
      <point x="896.7" y="1011.9" type="curve" smooth="yes"/>
      <point x="896.7" y="1311.9"/>
      <point x="743.1" y="1462"/>
      <point x="436.6" y="1462" type="curve" smooth="yes"/>
      <point x="125" y="1462" type="line"/>
    </contour>
    <contour>
      <point x="391" y="765.4" type="line"/>
      <point x="391" y="1227.1" type="line"/>
      <point x="435.9" y="1227.1" type="line" smooth="yes"/>
      <point x="569" y="1227.1"/>
      <point x="629.4" y="1156.2"/>
      <point x="629.4" y="1004.2" type="curve" smooth="yes"/>
      <point x="629.4" y="836"/>
      <point x="558.5" y="765.4"/>
      <point x="419.3" y="765.4" type="curve" smooth="yes"/>
    </contour>
    <contour>
      <point x="1245.4" y="-20" type="curve" smooth="yes"/>
      <point x="1319.1" y="-20"/>
      <point x="1384.4" y="-6.7"/>
      <point x="1440" y="20.3" type="curve"/>
      <point x="1440" y="213" type="line"/>
      <point x="1402.3" y="195.9"/>
      <point x="1365.8" y="188.4"/>
      <point x="1330.5" y="188.4" type="curve" smooth="yes"/>
      <point x="1274.3" y="188.4"/>
      <point x="1246.3" y="225.8"/>
      <point x="1246.3" y="322.4" type="curve" smooth="yes"/>
      <point x="1246.3" y="650.7" type="line"/>
      <point x="1429.5" y="650.7" type="line"/>
      <point x="1429.5" y="846" type="line"/>
      <point x="1246.3" y="846" type="line"/>
      <point x="1246.3" y="1076.6" type="line"/>
      <point x="1094.2" y="1076.6" type="line"/>
      <point x="1013.8" y="850.9" type="line"/>
      <point x="872" y="754" type="line"/>
      <point x="872" y="650.7" type="line"/>
      <point x="1001.1" y="650.7" type="line"/>
      <point x="1001.1" y="298.9" type="line" smooth="yes"/>
      <point x="1001.1" y="87.8"/>
      <point x="1084.4" y="-20"/>
    </contour>
  </outline>
</glyph>
<glyph name="literSign" format="2">
  <advance width="1012"/>
  <unicode hex="2113"/>
  <note>
afii61289
</note>
  <outline>
    <contour>
      <point x="595.2" y="-18" type="curve" smooth="yes"/>
      <point x="814.4" y="-18"/>
      <point x="919.5" y="108.7"/>
      <point x="934.7" y="378.7" type="curve"/>
      <point x="748.1" y="378.7" type="line"/>
      <point x="740.9" y="237.1"/>
      <point x="687.4" y="176.5"/>
      <point x="615.5" y="176.5" type="curve" smooth="yes"/>
      <point x="545.1" y="176.5"/>
      <point x="503.8" y="244.5"/>
      <point x="503.8" y="368.5" type="curve" smooth="yes"/>
      <point x="503.8" y="633.1" type="line"/>
      <point x="786.9" y="778.8"/>
      <point x="895.4" y="930.4"/>
      <point x="895.4" y="1150.8" type="curve" smooth="yes"/>
      <point x="895.4" y="1346.3"/>
      <point x="802.2" y="1480.9"/>
      <point x="566.6" y="1480.9" type="curve" smooth="yes"/>
      <point x="344.4" y="1480.9"/>
      <point x="236.6" y="1361.3"/>
      <point x="236.6" y="1136.9" type="curve" smooth="yes"/>
      <point x="236.6" y="708.6" type="line"/>
      <point x="161.1" y="684.1"/>
      <point x="99" y="665"/>
      <point x="50.6" y="653.4" type="curve"/>
      <point x="50.6" y="470.8" type="line"/>
      <point x="112.9" y="488.2"/>
      <point x="174.3" y="505.2"/>
      <point x="236.6" y="521.8" type="curve"/>
      <point x="236.6" y="375.4" type="line" smooth="yes"/>
      <point x="236.6" y="126.7"/>
      <point x="359.3" y="-18"/>
    </contour>
    <contour>
      <point x="503.8" y="831.1" type="curve"/>
      <point x="503.8" y="1155.1" type="line" smooth="yes"/>
      <point x="503.8" y="1229.3"/>
      <point x="514.3" y="1305.3"/>
      <point x="579.1" y="1305.3" type="curve" smooth="yes"/>
      <point x="633.1" y="1305.3"/>
      <point x="656.5" y="1255.2"/>
      <point x="656.5" y="1153" type="curve" smooth="yes"/>
      <point x="656.5" y="996.1"/>
      <point x="609.7" y="892.3"/>
    </contour>
  </outline>
</glyph>
<glyph name="numero" format="2">
  <advance width="1755"/>
  <unicode hex="2116"/>
  <note>
afii61352
</note>
  <outline>
    <contour>
      <point x="128.5" y="0" type="line"/>
      <point x="362.4" y="0" type="line"/>
      <point x="362.4" y="715.3" type="line" smooth="yes"/>
      <point x="362.4" y="805.6"/>
      <point x="355.6" y="933.9"/>
      <point x="344.1" y="1101.9" type="curve"/>
      <point x="353.5" y="1101.9" type="line"/>
      <point x="683.8" y="0" type="line"/>
      <point x="1023.7" y="0" type="line"/>
      <point x="1023.7" y="1462" type="line"/>
      <point x="790.5" y="1462" type="line"/>
      <point x="790.5" y="742.9" type="line" smooth="yes"/>
      <point x="790.5" y="680.1"/>
      <point x="794.9" y="556.2"/>
      <point x="803.3" y="368.5" type="curve"/>
      <point x="795.3" y="368.5" type="line"/>
      <point x="468.3" y="1462" type="line"/>
      <point x="128.5" y="1462" type="line"/>
    </contour>
    <contour>
      <point x="1170.7" y="0" type="line"/>
      <point x="1635.8" y="0" type="line"/>
      <point x="1635.8" y="180.5" type="line"/>
      <point x="1170.7" y="180.5" type="line"/>
    </contour>
    <contour>
      <point x="1401.2" y="274" type="curve" smooth="yes"/>
      <point x="1586.6" y="274"/>
      <point x="1683.6" y="400.5"/>
      <point x="1683.6" y="630.2" type="curve" smooth="yes"/>
      <point x="1683.6" y="869"/>
      <point x="1583.7" y="994.9"/>
      <point x="1401.8" y="994.9" type="curve" smooth="yes"/>
      <point x="1220.2" y="994.9"/>
      <point x="1120.3" y="865.4"/>
      <point x="1120.3" y="630.2" type="curve" smooth="yes"/>
      <point x="1120.3" y="397.5"/>
      <point x="1213.7" y="274"/>
    </contour>
    <contour>
      <point x="1401.2" y="430" type="curve" smooth="yes"/>
      <point x="1324.2" y="430"/>
      <point x="1308.8" y="528.3"/>
      <point x="1308.8" y="630.9" type="curve" smooth="yes"/>
      <point x="1308.8" y="733.7"/>
      <point x="1326.1" y="839.6"/>
      <point x="1401.2" y="839.6" type="curve" smooth="yes"/>
      <point x="1475" y="839.6"/>
      <point x="1495.1" y="737.8"/>
      <point x="1495.1" y="631.5" type="curve" smooth="yes"/>
      <point x="1495.1" y="532.9"/>
      <point x="1481.1" y="430"/>
    </contour>
  </outline>
</glyph>
<glyph name="brevecomb-cy" format="2">
  <note>
g566
</note>
  <anchor x="465" y="1114" name="_top"/>
  <outline>
    <contour>
      <point x="456" y="1225" type="curve" smooth="yes"/>
      <point x="685" y="1225"/>
      <point x="794" y="1324"/>
      <point x="823" y="1545" type="curve"/>
      <point x="600" y="1545" type="line"/>
      <point x="584" y="1427"/>
      <point x="548" y="1376"/>
      <point x="463" y="1376" type="curve" smooth="yes"/>
      <point x="379" y="1376"/>
      <point x="343" y="1410"/>
      <point x="326" y="1545" type="curve"/>
      <point x="107" y="1545" type="line"/>
      <point x="128" y="1321"/>
      <point x="235" y="1225"/>
    </contour>
  </outline>
</glyph>
<glyph name="caron.alt" format="2">
  <advance width="323"/>
  <anchor x="323" y="1556" name="_topright"/>
  <outline>
    <contour>
      <point x="1" y="1226" type="line"/>
      <point x="161" y="1226" type="line"/>
      <point x="221" y="1319"/>
      <point x="275" y="1421"/>
      <point x="323" y="1533" type="curve"/>
      <point x="323" y="1553" type="line"/>
      <point x="61" y="1553" type="line"/>
      <point x="50" y="1465"/>
      <point x="31" y="1364"/>
      <point x="1" y="1252" type="curve"/>
    </contour>
  </outline>
</glyph>
<glyph name="g568" format="2">
  <advance width="956"/>
  <note>
g568
</note>
  <outline>
    <contour>
      <point x="324" y="1226" type="line"/>
      <point x="485" y="1226" type="line"/>
      <point x="543" y="1317"/>
      <point x="597" y="1420"/>
      <point x="647" y="1533" type="curve"/>
      <point x="647" y="1553" type="line"/>
      <point x="385" y="1553" type="line"/>
      <point x="374" y="1465"/>
      <point x="354" y="1365"/>
      <point x="324" y="1252" type="curve"/>
    </contour>
  </outline>
</glyph>
<glyph name="g888" format="2">
  <note>
g888
</note>
  <anchor x="-727.1" y="1124" name="_top"/>
  <outline>
    <contour>
      <point x="-1085" y="1225" type="line"/>
      <point x="-934" y="1225" type="line"/>
      <point x="-871" y="1268"/>
      <point x="-802" y="1324"/>
      <point x="-727" y="1391" type="curve"/>
      <point x="-646" y="1320"/>
      <point x="-576" y="1264"/>
      <point x="-520" y="1225" type="curve"/>
      <point x="-370" y="1225" type="line"/>
      <point x="-370" y="1252" type="line"/>
      <point x="-442" y="1334"/>
      <point x="-512" y="1427"/>
      <point x="-582" y="1529" type="curve"/>
      <point x="-872" y="1529" type="line"/>
      <point x="-914" y="1465"/>
      <point x="-1014" y="1335"/>
      <point x="-1085" y="1252" type="curve"/>
    </contour>
    <contour>
      <point x="-1138" y="1420" type="curve"/>
      <point x="-1001" y="1420" type="line"/>
      <point x="-1001" y="1446" type="line"/>
      <point x="-1056" y="1507"/>
      <point x="-1103" y="1574"/>
      <point x="-1137" y="1647" type="curve"/>
      <point x="-1366" y="1647" type="line"/>
      <point x="-1366" y="1625" type="line"/>
      <point x="-1319" y="1564"/>
      <point x="-1244" y="1495"/>
    </contour>
  </outline>
</glyph>
<glyph name="g889" format="2">
  <note>
g889
</note>
  <anchor x="-701.9" y="1124" name="_top"/>
  <outline>
    <contour>
      <point x="-1063" y="1225" type="line"/>
      <point x="-913" y="1225" type="line"/>
      <point x="-847" y="1268"/>
      <point x="-778" y="1324"/>
      <point x="-702" y="1391" type="curve"/>
      <point x="-635" y="1328"/>
      <point x="-565" y="1273"/>
      <point x="-492" y="1225" type="curve"/>
      <point x="-342" y="1225" type="line"/>
      <point x="-342" y="1252" type="line"/>
      <point x="-394" y="1308"/>
      <point x="-504" y="1451"/>
      <point x="-557" y="1529" type="curve"/>
      <point x="-848" y="1529" type="line"/>
      <point x="-907" y="1441"/>
      <point x="-979" y="1349"/>
      <point x="-1063" y="1252" type="curve"/>
    </contour>
    <contour>
      <point x="-396" y="1416" type="line"/>
      <point x="-279" y="1416" type="line"/>
      <point x="-272" y="1481" type="line"/>
      <point x="-189" y="1498"/>
      <point x="-147" y="1544"/>
      <point x="-147" y="1618" type="curve" smooth="yes"/>
      <point x="-147" y="1718"/>
      <point x="-215" y="1768"/>
      <point x="-351" y="1768" type="curve" smooth="yes"/>
      <point x="-396" y="1768"/>
      <point x="-426" y="1766"/>
      <point x="-441" y="1762" type="curve"/>
      <point x="-441" y="1643" type="line"/>
      <point x="-416" y="1650"/>
      <point x="-393" y="1653"/>
      <point x="-371" y="1653" type="curve" smooth="yes"/>
      <point x="-314" y="1653"/>
      <point x="-287" y="1635"/>
      <point x="-287" y="1599" type="curve" smooth="yes"/>
      <point x="-287" y="1561"/>
      <point x="-326" y="1539"/>
      <point x="-408" y="1534" type="curve"/>
    </contour>
  </outline>
</glyph>
<glyph name="g893" format="2">
  <note>
g893
</note>
  <anchor x="-703" y="1124" name="_top"/>
  <outline>
    <contour>
      <point x="-703" y="1226" type="curve" smooth="yes"/>
      <point x="-494" y="1226"/>
      <point x="-376" y="1340"/>
      <point x="-361" y="1551" type="curve"/>
      <point x="-504" y="1551" type="line"/>
      <point x="-516" y="1438"/>
      <point x="-597" y="1389"/>
      <point x="-705" y="1389" type="curve" smooth="yes"/>
      <point x="-816" y="1389"/>
      <point x="-896" y="1441"/>
      <point x="-908" y="1551" type="curve"/>
      <point x="-1051" y="1551" type="line"/>
      <point x="-1036" y="1346"/>
      <point x="-912" y="1226"/>
    </contour>
    <contour>
      <point x="-776" y="1474" type="line"/>
      <point x="-672" y="1474" type="line"/>
      <point x="-666" y="1513" type="line"/>
      <point x="-594" y="1537"/>
      <point x="-558" y="1582"/>
      <point x="-558" y="1647" type="curve" smooth="yes"/>
      <point x="-558" y="1739"/>
      <point x="-629" y="1785"/>
      <point x="-746" y="1785" type="curve" smooth="yes"/>
      <point x="-792" y="1785"/>
      <point x="-822" y="1783"/>
      <point x="-837" y="1778" type="curve"/>
      <point x="-837" y="1678" type="line"/>
      <point x="-818" y="1683"/>
      <point x="-791" y="1686"/>
      <point x="-757" y="1686" type="curve" smooth="yes"/>
      <point x="-712" y="1686"/>
      <point x="-689" y="1670"/>
      <point x="-689" y="1641" type="curve" smooth="yes"/>
      <point x="-689" y="1602"/>
      <point x="-726" y="1590"/>
      <point x="-785" y="1579" type="curve"/>
    </contour>
  </outline>
</glyph>
